<svg xmlns:inkscape="http://www.inkscape.org/namespaces/inkscape" xmlns:sodipodi="http://sodipodi.sourceforge.net/DTD/sodipodi-0.dtd" xmlns="http://www.w3.org/2000/svg" xmlns:svg="http://www.w3.org/2000/svg" viewBox="0 0 26.458333 33.0729125" version="1.1" x="0px" y="0px"><g transform="translate(-163.77571,-93.187022)"><path style="color:#000000;" d="m 188.24999,112.61442 c 0.58392,-8e-5 1.0576,0.47272 1.05859,1.05664 0,0 -0.001,1.26885 -0.83789,2.47656 -0.83686,1.20772 -2.56065,2.32813 -5.41015,2.32813 h -12.11133 c -2.8495,0 -4.57329,-1.12041 -5.41016,-2.32813 -0.83686,-1.20771 -0.83789,-2.47656 -0.83789,-2.47656 9.9e-4,-0.58392 0.47468,-1.05673 1.0586,-1.05664 z" fill="#000000" stroke-linecap="round" stroke-linejoin="round"/><path style="color:#000000;" d="m 177.2871,94.385902 c 0.47677,-0.114539 0.96979,0.113381 1.19141,0.55078 l 7.9375,15.609378 c 0.35897,0.70433 -0.15283,1.53931 -0.94336,1.53906 h -7.9375 c -0.58468,9e-5 -1.05868,-0.47391 -1.0586,-1.05859 V 95.415202 c -1.4e-4,-0.489183 0.33497,-0.914732 0.81055,-1.0293 z" fill="#000000" stroke-linecap="round" stroke-linejoin="round"/><path style="color:#000000;" d="m 174.55077,97.549962 c 0.50239,0.0923 0.86719,0.530222 0.86719,1.04102 v 12.435548 c 8e-5,0.58468 -0.47391,1.05867 -1.05859,1.05859 h -4.76172 c -0.7424,3e-5 -1.25416,-0.74434 -0.98828,-1.4375 l 4.76171,-12.435548 c 0.18248,-0.475989 0.67832,-0.754286 1.17969,-0.66211 z" fill="#000000" stroke-linecap="round" stroke-linejoin="round"/></g><text x="0" y="41.458330000000004" fill="#000000" font-size="5px" font-weight="bold" font-family="'Helvetica Neue', Helvetica, Arial-Unicode, Arial, Sans-serif">Created by Son aji nur</text><text x="0" y="46.458330000000004" fill="#000000" font-size="5px" font-weight="bold" font-family="'Helvetica Neue', Helvetica, Arial-Unicode, Arial, Sans-serif">from the Noun Project</text></svg>