<?xml version="1.0" encoding="UTF-8"?>
<!DOCTYPE svg PUBLIC "-//W3C//DTD SVG 1.1//EN" "http://www.w3.org/Graphics/SVG/1.1/DTD/svg11.dtd">
<!-- Creator: CorelDRAW -->
<svg xmlns="http://www.w3.org/2000/svg" xml:space="preserve" width="3.93324in" height="1.00996in" version="1.1" style="shape-rendering:geometricPrecision; text-rendering:geometricPrecision; image-rendering:optimizeQuality; fill-rule:evenodd; clip-rule:evenodd"
viewBox="0 0 1667.33 428.13"
 xmlns:xlink="http://www.w3.org/1999/xlink"
 xmlns:xodm="http://www.corel.com/coreldraw/odm/2003">
 <defs>
  <style type="text/css">
   <![CDATA[
    .str1 {stroke:#C47C2B;stroke-width:17.66;stroke-miterlimit:2.61313}
    .str0 {stroke:white;stroke-width:8.83;stroke-miterlimit:2.61313}
    .fil5 {fill:none}
    .fil4 {fill:#1A1A1A}
    .fil2 {fill:#F5C518}
    .fil3 {fill:white}
    .fil0 {fill:#1A1A1A;fill-rule:nonzero}
    .fil1 {fill:#C47C2B;fill-rule:nonzero}
    .fil6 {fill:#C47C2B;fill-rule:nonzero}
   ]]>
  </style>
   <clipPath id="id0">
    <path d="M214.07 8.83c113.35,0 205.23,91.89 205.23,205.23 0,113.35 -91.89,205.23 -205.23,205.23 -113.35,0 -205.23,-91.89 -205.23,-205.23 0,-113.35 91.89,-205.23 205.23,-205.23z"/>
   </clipPath>
 </defs>
 <g id="Layer_x0020_1">
  <metadata id="CorelCorpID_0Corel-Layer"/>
  <g>
  </g>
  <g style="clip-path:url(#id0)">
   <g id="_1607891742672">
    <path class="fil0" d="M110.06 186.78l79.11 0 -7.59 45.72 -78.87 0 7.35 -45.72zm-15.67 117.44l-48.5 0 34.29 -209.18 134.22 0 -7.59 45.72 -85.72 0 -26.7 163.46z"/>
    <path id="_1" class="fil1" d="M282.49 308.4c-17.47,0 -32.7,-3.88 -45.68,-11.65 -12.98,-7.77 -22.98,-18.58 -30,-32.42 -7.02,-13.85 -10.53,-29.83 -10.53,-47.96 0,-18.13 2.61,-34.86 7.84,-50.2 5.23,-15.34 12.57,-28.64 22.04,-39.89 9.47,-11.26 20.78,-19.97 33.92,-26.15 13.14,-6.18 27.72,-9.26 43.72,-9.26 15.84,0 29.88,3.39 42.13,10.16 12.25,6.77 21.39,16.54 27.43,29.29l-35.02 34.06c-3.92,-7.97 -9.02,-14.04 -15.31,-18.23 -6.29,-4.18 -13.76,-6.28 -22.41,-6.28 -8.33,0 -15.88,1.79 -22.65,5.38 -6.78,3.58 -12.61,8.67 -17.51,15.24 -4.9,6.57 -8.66,14.29 -11.27,23.16 -2.61,8.86 -3.92,18.48 -3.92,28.84 0,9.36 1.67,17.58 5.02,24.65 3.35,7.07 8.16,12.55 14.45,16.44 6.29,3.88 13.76,5.83 22.41,5.83 7.67,0 15.06,-1.89 22.17,-5.68 7.1,-3.79 13.68,-9.96 19.72,-18.53l28.66 34.37c-9.63,14.14 -20.74,24.15 -33.31,30.03 -12.57,5.88 -26.53,8.81 -41.88,8.81z"/>
    <circle class="fil2 str0" cx="511.13" cy="795.28" r="591.74"/>
    <circle class="fil3" cx="646.67" cy="776.41" r="607"/>
    <circle class="fil4" cx="604.54" cy="625.02" r="448.34"/>
   </g>
  </g>
  <path class="fil5 str1" d="M214.07 8.83c113.35,0 205.23,91.89 205.23,205.23 0,113.35 -91.89,205.23 -205.23,205.23 -113.35,0 -205.23,-91.89 -205.23,-205.23 0,-113.35 91.89,-205.23 205.23,-205.23z"/>
  <path class="fil0" d="M514.43 208.7l59.73 0 -5.73 28.3 -59.55 0 5.55 -28.3zm-11.84 72.68l-36.62 0 25.89 -129.46 101.35 0 -5.73 28.3 -64.73 0 -20.16 101.16z"/>
  <polygon id="_1_93" class="fil0" points="583.04,281.38 610.41,144.16 645.55,144.16 618.18,281.38 "/>
  <path id="_2" class="fil0" d="M697.52 283.05c-10.73,0 -20.07,-1.88 -28.02,-5.64 -7.95,-3.76 -14.15,-9.06 -18.59,-15.9 -4.44,-6.84 -6.66,-14.89 -6.66,-24.13 0,-11.1 2.53,-20.99 7.58,-29.68 5.05,-8.69 12.14,-15.56 21.27,-20.62 9.12,-5.06 19.73,-7.58 31.81,-7.58 10.23,0 19.02,1.85 26.35,5.55 7.34,3.7 13.01,8.85 17.01,15.44 4.01,6.6 6.01,14.27 6.01,23.02 0,2.96 -0.18,5.79 -0.55,8.51 -0.37,2.71 -0.86,5.36 -1.48,7.95l-80.45 0 3.33 -18.49 60.84 0 -14.61 5.36c0.99,-4.81 0.83,-8.85 -0.46,-12.11 -1.3,-3.27 -3.45,-5.79 -6.47,-7.58 -3.02,-1.79 -6.75,-2.68 -11.19,-2.68 -5.67,0 -10.33,1.42 -13.96,4.25 -3.64,2.84 -6.35,6.69 -8.14,11.56 -1.79,4.87 -2.68,10.14 -2.68,15.81 0,6.9 1.91,11.99 5.73,15.26 3.82,3.27 9.55,4.9 17.2,4.9 4.44,0 8.79,-0.71 13.04,-2.13 4.25,-1.42 7.98,-3.42 11.19,-6.01l14.61 22.01c-6.29,4.69 -13.1,8.01 -20.44,9.99 -7.34,1.97 -14.76,2.96 -22.29,2.96z"/>
  <path id="_3" class="fil0" d="M815.51 283.05c-10.73,0 -20.07,-1.88 -28.02,-5.64 -7.95,-3.76 -14.15,-9.06 -18.59,-15.9 -4.44,-6.84 -6.66,-14.89 -6.66,-24.13 0,-11.1 2.53,-20.99 7.58,-29.68 5.05,-8.69 12.14,-15.56 21.27,-20.62 9.12,-5.06 19.73,-7.58 31.81,-7.58 10.23,0 19.02,1.85 26.35,5.55 7.34,3.7 13.01,8.85 17.01,15.44 4.01,6.6 6.01,14.27 6.01,23.02 0,2.96 -0.18,5.79 -0.55,8.51 -0.37,2.71 -0.86,5.36 -1.48,7.95l-80.45 0 3.33 -18.49 60.84 0 -14.61 5.36c0.99,-4.81 0.83,-8.85 -0.46,-12.11 -1.3,-3.27 -3.45,-5.79 -6.47,-7.58 -3.02,-1.79 -6.75,-2.68 -11.19,-2.68 -5.67,0 -10.33,1.42 -13.96,4.25 -3.64,2.84 -6.35,6.69 -8.14,11.56 -1.79,4.87 -2.68,10.14 -2.68,15.81 0,6.9 1.91,11.99 5.73,15.26 3.82,3.27 9.55,4.9 17.2,4.9 4.44,0 8.79,-0.71 13.04,-2.13 4.25,-1.42 7.98,-3.42 11.19,-6.01l14.61 22.01c-6.29,4.69 -13.1,8.01 -20.44,9.99 -7.34,1.97 -14.76,2.96 -22.29,2.96z"/>
  <path id="_4" class="fil0" d="M921.29 283.05c-7.77,0 -14.43,-1.51 -19.97,-4.53 -5.55,-3.02 -9.49,-7.46 -11.84,-13.31 -2.34,-5.86 -2.71,-12.85 -1.11,-20.99l17.01 -85.44 35.14 0 -17.01 85.26c-0.62,3.82 -0.19,6.75 1.3,8.79 1.48,2.03 4.01,3.05 7.58,3.05 1.85,0 3.64,-0.25 5.36,-0.74 1.73,-0.49 3.45,-1.23 5.18,-2.22l4.44 24.23c-3.7,2.1 -7.8,3.61 -12.3,4.53 -4.5,0.92 -9.09,1.39 -13.78,1.39zm-40.32 -75.82l5.36 -26.08 72.49 0 -5.18 26.08 -72.68 0z"/>
  <path id="_5" class="fil6" d="M1032.07 283.97c-13.19,0 -24.69,-2.4 -34.49,-7.21 -9.8,-4.81 -17.35,-11.5 -22.66,-20.07 -5.3,-8.57 -7.95,-18.46 -7.95,-29.68 0,-11.22 1.97,-21.58 5.92,-31.07 3.95,-9.49 9.49,-17.72 16.64,-24.69 7.15,-6.96 15.69,-12.36 25.61,-16.18 9.93,-3.82 20.93,-5.73 33.01,-5.73 11.96,0 22.56,2.1 31.81,6.29 9.25,4.19 16.15,10.23 20.71,18.12l-26.45 21.08c-2.96,-4.93 -6.81,-8.69 -11.56,-11.28 -4.75,-2.59 -10.39,-3.88 -16.92,-3.88 -6.29,0 -11.99,1.11 -17.11,3.33 -5.12,2.22 -9.52,5.36 -13.22,9.43 -3.7,4.07 -6.53,8.85 -8.51,14.33 -1.97,5.49 -2.96,11.44 -2.96,17.85 0,5.79 1.26,10.88 3.79,15.26 2.53,4.38 6.17,7.77 10.91,10.17 4.75,2.4 10.39,3.61 16.92,3.61 5.79,0 11.37,-1.17 16.74,-3.51 5.36,-2.34 10.33,-6.17 14.89,-11.47l21.64 21.27c-7.27,8.75 -15.66,14.95 -25.15,18.59 -9.49,3.64 -20.04,5.46 -31.62,5.46z"/>
  <path id="_6" class="fil6" d="M1178.91 179.48c8.26,0 15.38,1.76 21.36,5.27 5.98,3.51 10.26,8.69 12.85,15.53 2.59,6.84 2.84,15.38 0.74,25.61l-11.1 55.48 -35.14 0 10.36 -52.15c1.36,-6.41 0.95,-11.34 -1.2,-14.8 -2.16,-3.45 -6.13,-5.18 -11.93,-5.18 -5.92,0 -10.91,1.85 -14.98,5.55 -4.07,3.7 -6.9,9.37 -8.51,17.01l-9.99 49.56 -35.14 0 27.37 -137.22 35.14 0 -12.95 64.91 -6.47 -7.95c4.81,-7.52 10.76,-13.01 17.85,-16.46 7.09,-3.45 14.33,-5.18 21.73,-5.18z"/>
  <path id="_7" class="fil6" d="M1282.84 283.05c-10.73,0 -20.07,-1.88 -28.02,-5.64 -7.95,-3.76 -14.15,-9.06 -18.59,-15.9 -4.44,-6.84 -6.66,-14.89 -6.66,-24.13 0,-11.1 2.53,-20.99 7.58,-29.68 5.05,-8.69 12.14,-15.56 21.27,-20.62 9.12,-5.06 19.73,-7.58 31.81,-7.58 10.23,0 19.02,1.85 26.35,5.55 7.34,3.7 13.01,8.85 17.01,15.44 4.01,6.6 6.01,14.27 6.01,23.02 0,2.96 -0.18,5.79 -0.55,8.51 -0.37,2.71 -0.86,5.36 -1.48,7.95l-80.45 0 3.33 -18.49 60.84 0 -14.61 5.36c0.99,-4.81 0.83,-8.85 -0.46,-12.11 -1.3,-3.27 -3.45,-5.79 -6.47,-7.58 -3.02,-1.79 -6.75,-2.68 -11.19,-2.68 -5.67,0 -10.33,1.42 -13.96,4.25 -3.64,2.84 -6.35,6.69 -8.14,11.56 -1.79,4.87 -2.68,10.14 -2.68,15.81 0,6.9 1.91,11.99 5.73,15.26 3.82,3.27 9.55,4.9 17.2,4.9 4.44,0 8.79,-0.71 13.04,-2.13 4.25,-1.42 7.98,-3.42 11.19,-6.01l14.61 22.01c-6.29,4.69 -13.1,8.01 -20.44,9.99 -7.34,1.97 -14.76,2.96 -22.29,2.96z"/>
  <path id="_8" class="fil6" d="M1400.28 283.05c-10.73,0 -20.04,-1.91 -27.93,-5.73 -7.89,-3.82 -14.02,-9.15 -18.4,-16 -4.38,-6.84 -6.57,-14.83 -6.57,-23.95 0,-11.1 2.65,-20.99 7.95,-29.68 5.3,-8.69 12.64,-15.56 22.01,-20.62 9.37,-5.06 20.1,-7.58 32.18,-7.58 11.34,0 21.18,2.4 29.5,7.21 8.32,4.81 14.33,11.47 18.03,19.97l-29.96 14.24c-1.85,-4.68 -4.47,-8.07 -7.86,-10.17 -3.39,-2.1 -7.24,-3.14 -11.56,-3.14 -4.68,0 -8.91,1.2 -12.67,3.61 -3.76,2.4 -6.69,5.64 -8.79,9.71 -2.1,4.07 -3.14,8.88 -3.14,14.43 0,5.79 1.67,10.48 4.99,14.06 3.33,3.57 8.2,5.36 14.61,5.36 4.56,0 8.66,-1.02 12.3,-3.05 3.64,-2.03 6.75,-5.39 9.34,-10.08l25.71 15.54c-4.81,8.14 -11.56,14.49 -20.25,19.05 -8.69,4.56 -18.52,6.84 -29.5,6.84z"/>
  <path id="_9" class="fil6" d="M1490.16 264.37l7.77 -43.64 46.79 -39.58 44.39 0 -55.85 48.27 -19.97 14.61 -23.12 20.34zm-34.21 17.01l27.37 -137.22 35.14 0 -27.37 137.22 -35.14 0zm74.34 0l-23.12 -38.47 24.78 -26.82 39.39 65.28 -41.06 0z"/>
  <path id="_10" class="fil6" d="M1580.04 281.38l19.97 -100.24 33.29 0 -5.73 28.48 -3.33 -8.14c4.44,-8.01 10.29,-13.69 17.57,-17.01 7.27,-3.33 15.78,-4.99 25.52,-4.99l-6.1 31.62c-1.48,-0.25 -2.84,-0.4 -4.07,-0.46 -1.23,-0.06 -2.53,-0.09 -3.88,-0.09 -7.64,0 -13.9,1.82 -18.77,5.46 -4.87,3.64 -8.11,9.65 -9.71,18.03l-9.62 47.34 -35.14 0z"/>
 </g>
</svg>
