<?xml version="1.0" encoding="UTF-8"?>
<!DOCTYPE svg PUBLIC "-//W3C//DTD SVG 1.1//EN" "http://www.w3.org/Graphics/SVG/1.1/DTD/svg11.dtd">
<!-- Creator: CorelDRAW -->
<svg xmlns="http://www.w3.org/2000/svg" xml:space="preserve" width="3.93324in" height="1.00996in" version="1.1" style="shape-rendering:geometricPrecision; text-rendering:geometricPrecision; image-rendering:optimizeQuality; fill-rule:evenodd; clip-rule:evenodd"
viewBox="0 0 12032.47 3089.66"
 xmlns:xlink="http://www.w3.org/1999/xlink"
 xmlns:xodm="http://www.corel.com/coreldraw/odm/2003">
 <defs>
  <style type="text/css">
   <![CDATA[
    .str1 {stroke:#F5C518;stroke-width:127.46;stroke-miterlimit:2.61313}
    .str0 {stroke:white;stroke-width:63.74;stroke-miterlimit:2.61313}
    .fil5 {fill:none}
    .fil4 {fill:#1A1A1A}
    .fil2 {fill:#F5C518}
    .fil3 {fill:white}
    .fil1 {fill:#C47C2B;fill-rule:nonzero}
    .fil6 {fill:#C47C2B;fill-rule:nonzero}
    .fil0 {fill:#F5C518;fill-rule:nonzero}
   ]]>
  </style>
   <clipPath id="id0">
    <path d="M1544.84 63.74c817.98,0 1481.09,663.11 1481.09,1481.09 0,817.99 -663.11,1481.1 -1481.09,1481.1 -817.99,0 -1481.1,-663.11 -1481.1,-1481.1 0,-817.98 663.11,-1481.09 1481.1,-1481.09z"/>
   </clipPath>
 </defs>
 <g id="Layer_x0020_1">
  <metadata id="CorelCorpID_0Corel-Layer"/>
  <g>
  </g>
  <g style="clip-path:url(#id0)">
   <g id="_1607890965088">
    <path class="fil0" d="M794.28 1347.91l570.91 0 -54.79 329.95 -569.14 0 53.02 -329.95zm-113.12 847.51l-349.97 0 247.46 -1509.56 968.6 0 -54.79 329.95 -618.64 0 -192.66 1179.61z"/>
    <path id="_1" class="fil1" d="M2038.61 2225.6c-126.09,0 -235.97,-28.03 -329.64,-84.09 -93.68,-56.08 -165.86,-134.07 -216.53,-233.99 -50.67,-99.92 -76,-215.29 -76,-346.12 0,-130.83 18.85,-251.6 56.56,-362.3 37.71,-110.71 90.73,-206.68 159.08,-287.9 68.34,-81.22 149.94,-144.12 244.81,-188.69 94.86,-44.57 200.01,-66.86 315.49,-66.86 114.31,0 215.65,24.45 304.01,73.32 88.38,48.87 154.37,119.33 197.97,211.35l-252.76 245.83c-28.28,-57.51 -65.1,-101.35 -110.47,-131.54 -45.37,-30.19 -99.28,-45.29 -161.74,-45.29 -60.09,0 -114.59,12.94 -163.49,38.83 -48.9,25.87 -91.03,62.53 -126.38,109.97 -35.36,47.44 -62.46,103.16 -81.31,167.13 -18.85,63.97 -28.28,133.34 -28.28,208.1 0,67.57 12.07,126.88 36.23,177.91 24.16,51.04 58.92,90.57 104.29,118.62 45.36,28.03 99.28,42.05 161.73,42.05 55.38,0 108.7,-13.66 159.97,-40.97 51.26,-27.32 98.69,-71.89 142.28,-133.71l206.81 248.01c-69.53,102.07 -149.66,174.31 -240.39,216.73 -90.74,42.41 -191.48,63.6 -302.24,63.6z"/>
    <circle class="fil2 str0" cx="3688.65" cy="5739.23" r="4270.39"/>
    <circle class="fil3" cx="4666.74" cy="5603.02" r="4380.45"/>
    <circle class="fil4" cx="4362.7" cy="4510.5" r="3235.47"/>
   </g>
  </g>
  <path class="fil5 str1" d="M1544.84 63.74c817.98,0 1481.09,663.11 1481.09,1481.09 0,817.99 -663.11,1481.1 -1481.09,1481.1 -817.99,0 -1481.1,-663.11 -1481.1,-1481.1 0,-817.98 663.11,-1481.09 1481.1,-1481.09z"/>
  <path class="fil0" d="M3712.46 1506.14l431.08 0 -41.37 204.19 -429.75 0 40.05 -204.19zm-85.42 524.5l-264.26 0 186.85 -934.23 731.37 0 -41.38 204.19 -467.11 0 -145.47 730.04z"/>
  <polygon id="_1_92" class="fil0" points="4207.6,2030.64 4405.12,1040.35 4658.7,1040.35 4461.17,2030.64 "/>
  <path id="_2" class="fil0" d="M5033.72 2042.65c-77.41,0 -144.81,-13.56 -202.19,-40.7 -57.39,-27.15 -102.1,-65.4 -134.12,-114.78 -32.04,-49.38 -48.06,-107.44 -48.06,-174.17 0,-80.08 18.25,-151.48 54.73,-214.21 36.47,-62.73 87.63,-112.32 153.48,-148.8 65.84,-36.48 142.36,-54.72 229.56,-54.72 73.84,0 137.24,13.34 190.17,40.03 52.95,26.69 93.87,63.83 122.79,111.44 28.92,47.6 43.37,102.99 43.37,166.16 0,21.35 -1.32,41.82 -4,61.39 -2.67,19.57 -6.23,38.71 -10.67,57.39l-580.57 0 24.03 -133.46 439.09 0 -105.43 38.7c7.12,-34.7 6.01,-63.83 -3.34,-87.42 -9.35,-23.57 -24.92,-41.82 -46.72,-54.72 -21.79,-12.9 -48.71,-19.35 -80.74,-19.35 -40.93,0 -74.52,10.24 -100.76,30.7 -26.24,20.46 -45.83,48.27 -58.73,83.42 -12.9,35.14 -19.34,73.18 -19.34,114.1 0,49.83 13.79,86.52 41.37,110.11 27.58,23.58 68.95,35.37 124.11,35.37 32.04,0 63.4,-5.12 94.09,-15.36 30.7,-10.23 57.62,-24.69 80.76,-43.37l105.43 158.81c-45.38,33.82 -94.53,57.84 -147.48,72.07 -52.95,14.24 -106.54,21.35 -160.82,21.35z"/>
  <path id="_3" class="fil0" d="M5885.21 2042.65c-77.41,0 -144.81,-13.56 -202.19,-40.7 -57.39,-27.15 -102.1,-65.4 -134.12,-114.78 -32.04,-49.38 -48.06,-107.44 -48.06,-174.17 0,-80.08 18.25,-151.48 54.73,-214.21 36.47,-62.73 87.63,-112.32 153.48,-148.8 65.84,-36.48 142.36,-54.72 229.56,-54.72 73.84,0 137.24,13.34 190.17,40.03 52.95,26.69 93.87,63.83 122.79,111.44 28.92,47.6 43.37,102.99 43.37,166.16 0,21.35 -1.32,41.82 -4,61.39 -2.67,19.57 -6.23,38.71 -10.67,57.39l-580.57 0 24.03 -133.46 439.09 0 -105.43 38.7c7.12,-34.7 6.01,-63.83 -3.34,-87.42 -9.35,-23.57 -24.92,-41.82 -46.72,-54.72 -21.79,-12.9 -48.71,-19.35 -80.74,-19.35 -40.93,0 -74.52,10.24 -100.76,30.7 -26.24,20.46 -45.83,48.27 -58.73,83.42 -12.9,35.14 -19.34,73.18 -19.34,114.1 0,49.83 13.79,86.52 41.37,110.11 27.58,23.58 68.95,35.37 124.11,35.37 32.04,0 63.4,-5.12 94.09,-15.36 30.7,-10.23 57.62,-24.69 80.76,-43.37l105.43 158.81c-45.38,33.82 -94.53,57.84 -147.48,72.07 -52.95,14.24 -106.54,21.35 -160.82,21.35z"/>
  <path id="_4" class="fil0" d="M6648.62 2042.65c-56.06,0 -104.11,-10.9 -144.14,-32.7 -40.03,-21.8 -68.51,-53.82 -85.42,-96.09 -16.91,-42.26 -19.57,-92.75 -8.01,-151.48l122.79 -616.59 253.57 0 -122.79 615.26c-4.44,27.58 -1.34,48.72 9.35,63.4 10.67,14.67 28.92,22.02 54.72,22.02 13.34,0 26.26,-1.78 38.71,-5.34 12.45,-3.57 24.91,-8.9 37.37,-16.02l32.03 174.83c-26.69,15.13 -56.28,26.03 -88.75,32.7 -32.47,6.67 -65.62,10.01 -99.42,10.01zm-290.95 -547.2l38.7 -188.18 523.17 0 -37.36 188.18 -524.5 0z"/>
  <path id="_5" class="fil6" d="M7448.05 2049.32c-95.2,0 -178.17,-17.34 -248.9,-52.04 -70.73,-34.7 -125.23,-82.97 -163.5,-144.81 -38.25,-61.85 -57.39,-133.24 -57.39,-214.21 0,-80.96 14.24,-155.7 42.71,-224.21 28.47,-68.51 68.52,-127.91 120.11,-178.18 51.61,-50.26 113.23,-89.19 184.85,-116.78 71.63,-27.58 151.03,-41.37 238.23,-41.37 86.31,0 162.82,15.13 229.55,45.38 66.74,30.25 116.56,73.84 149.48,130.79l-190.85 152.15c-21.35,-35.59 -49.15,-62.73 -83.4,-81.42 -34.27,-18.68 -74.96,-28.03 -122.13,-28.03 -45.37,0 -86.52,8.01 -123.45,24.03 -36.93,16.02 -68.74,38.71 -95.42,68.06 -26.69,29.36 -47.15,63.85 -61.39,103.43 -14.24,39.6 -21.35,82.53 -21.35,128.8 0,41.82 9.12,78.51 27.35,110.11 18.25,31.58 44.49,56.05 78.74,73.4 34.25,17.36 74.96,26.03 122.13,26.03 41.82,0 82.08,-8.45 120.78,-25.35 38.71,-16.91 74.52,-44.49 107.43,-82.75l156.15 153.49c-52.49,63.17 -113,107.88 -181.5,134.12 -68.51,26.26 -144.59,39.37 -228.22,39.37z"/>
  <path id="_6" class="fil6" d="M8507.74 1295.27c59.61,0 111,12.67 154.14,38.03 43.15,25.35 74.07,62.73 92.76,112.11 18.68,49.38 20.46,111 5.34,184.84l-80.08 400.39 -253.57 0 74.75 -376.36c9.78,-46.26 6.89,-81.85 -8.68,-106.77 -15.56,-24.91 -44.26,-37.37 -86.08,-37.37 -42.71,0 -78.74,13.34 -108.11,40.05 -29.36,26.69 -49.83,67.62 -61.39,122.78l-72.07 357.68 -253.57 0 197.52 -990.29 253.57 0 -93.43 468.46 -46.71 -57.39c34.7,-54.28 77.62,-93.87 128.79,-118.79 51.16,-24.91 103.43,-37.36 156.83,-37.36z"/>
  <path id="_7" class="fil6" d="M9257.8 2042.65c-77.41,0 -144.81,-13.56 -202.19,-40.7 -57.39,-27.15 -102.1,-65.4 -134.12,-114.78 -32.04,-49.38 -48.06,-107.44 -48.06,-174.17 0,-80.08 18.25,-151.48 54.73,-214.21 36.47,-62.73 87.63,-112.32 153.48,-148.8 65.84,-36.48 142.36,-54.72 229.56,-54.72 73.84,0 137.24,13.34 190.17,40.03 52.95,26.69 93.87,63.83 122.79,111.44 28.92,47.6 43.37,102.99 43.37,166.16 0,21.35 -1.32,41.82 -4,61.39 -2.67,19.57 -6.23,38.71 -10.67,57.39l-580.57 0 24.03 -133.46 439.09 0 -105.43 38.7c7.12,-34.7 6.01,-63.83 -3.34,-87.42 -9.35,-23.57 -24.92,-41.82 -46.72,-54.72 -21.79,-12.9 -48.71,-19.35 -80.74,-19.35 -40.93,0 -74.52,10.24 -100.76,30.7 -26.24,20.46 -45.83,48.27 -58.73,83.42 -12.9,35.14 -19.34,73.18 -19.34,114.1 0,49.83 13.79,86.52 41.37,110.11 27.58,23.58 68.95,35.37 124.11,35.37 32.04,0 63.4,-5.12 94.09,-15.36 30.7,-10.23 57.62,-24.69 80.76,-43.37l105.43 158.81c-45.38,33.82 -94.53,57.84 -147.48,72.07 -52.95,14.24 -106.54,21.35 -160.82,21.35z"/>
  <path id="_8" class="fil6" d="M10105.29 2042.65c-77.41,0 -144.59,-13.79 -201.53,-41.37 -56.94,-27.58 -101.21,-66.06 -132.8,-115.44 -31.58,-49.38 -47.38,-107 -47.38,-172.83 0,-80.08 19.14,-151.48 57.39,-214.21 38.26,-62.73 91.21,-112.32 158.82,-148.8 67.63,-36.48 145.03,-54.72 232.22,-54.72 81.86,0 152.81,17.34 212.88,52.04 60.05,34.7 103.43,82.75 130.12,144.14l-216.21 102.76c-13.34,-33.81 -32.24,-58.27 -56.72,-73.4 -24.47,-15.13 -52.27,-22.69 -83.42,-22.69 -33.81,0 -64.28,8.67 -91.41,26.03 -27.15,17.34 -48.27,40.71 -63.4,70.06 -15.13,29.36 -22.69,64.06 -22.69,104.11 0,41.82 12.02,75.62 36.04,101.43 24.03,25.8 59.17,38.7 105.43,38.7 32.93,0 62.51,-7.33 88.75,-22.02 26.26,-14.68 48.72,-38.93 67.4,-72.75l185.51 112.12c-34.7,58.71 -83.42,104.54 -146.14,137.46 -62.73,32.93 -133.68,49.38 -212.87,49.38z"/>
  <path id="_9" class="fil6" d="M10753.9 1907.86l56.05 -314.96 337.65 -285.61 320.31 0 -403.05 348.34 -144.14 105.43 -166.82 146.8zm-246.9 122.79l197.52 -990.29 253.57 0 -197.52 990.29 -253.57 0zm536.51 0l-166.82 -277.6 178.83 -193.52 284.27 471.13 -296.28 0z"/>
  <path id="_10" class="fil6" d="M11402.53 2030.64l144.13 -723.36 240.24 0 -41.38 205.53 -24.02 -58.73c32.03,-57.84 74.29,-98.76 126.79,-122.78 52.49,-24.03 113.89,-36.04 184.18,-36.04l-44.04 228.21c-10.67,-1.77 -20.46,-2.89 -29.36,-3.34 -8.89,-0.45 -18.23,-0.66 -28.03,-0.66 -55.16,0 -100.31,13.13 -135.46,39.37 -35.14,26.24 -58.5,69.63 -70.07,130.12l-69.4 341.66 -253.57 0z"/>
 </g>
</svg>
